<mxfile host="app.diagrams.net" modified="2021-09-04T12:46:55.582Z" agent="5.0 (Windows NT 10.0; Win64; x64) AppleWebKit/537.36 (KHTML, like Gecko) Chrome/92.0.4515.159 Safari/537.36" etag="MfMoARBMFKPpazeWPexC" version="15.0.6" type="github">
  <diagram id="HV1YXaSZT8gSFi5pHb_S" name="Page-1">
    <mxGraphModel dx="1736" dy="964" grid="0" gridSize="10" guides="1" tooltips="1" connect="1" arrows="1" fold="1" page="1" pageScale="1" pageWidth="1600" pageHeight="900" math="0" shadow="0">
      <root>
        <mxCell id="0" />
        <mxCell id="1" parent="0" />
        <mxCell id="U-HPWR_DPuELKlg10GO_-75" value="&lt;font style=&quot;font-size: 26px&quot; face=&quot;b nazanin&quot;&gt;گازهای گلخانه‌ای&lt;/font&gt;" style="edgeStyle=orthogonalEdgeStyle;rounded=0;jumpStyle=none;orthogonalLoop=1;jettySize=auto;html=1;exitX=0.25;exitY=0;exitDx=0;exitDy=0;entryX=0.25;entryY=1;entryDx=0;entryDy=0;strokeColor=#FF8000;strokeWidth=3;verticalAlign=middle;horizontal=0;" edge="1" parent="1" source="U-HPWR_DPuELKlg10GO_-1" target="U-HPWR_DPuELKlg10GO_-3">
          <mxGeometry x="-0.0408" relative="1" as="geometry">
            <mxPoint as="offset" />
          </mxGeometry>
        </mxCell>
        <mxCell id="U-HPWR_DPuELKlg10GO_-1" value="&lt;font style=&quot;font-size: 40px&quot; face=&quot;b nazanin&quot;&gt;&lt;b&gt;انرژی&lt;/b&gt;&lt;/font&gt;" style="rounded=1;whiteSpace=wrap;html=1;strokeWidth=3;perimeterSpacing=2;shadow=0;glass=0;fillColor=#ffe6cc;strokeColor=#d79b00;" vertex="1" parent="1">
          <mxGeometry x="716" y="322" width="170" height="100" as="geometry" />
        </mxCell>
        <mxCell id="U-HPWR_DPuELKlg10GO_-76" value="&lt;font style=&quot;font-size: 26px&quot; face=&quot;b nazanin&quot;&gt;فتوولتائیک و بادی&lt;/font&gt;" style="edgeStyle=orthogonalEdgeStyle;rounded=0;jumpStyle=none;orthogonalLoop=1;jettySize=auto;html=1;exitX=0.75;exitY=1;exitDx=0;exitDy=0;entryX=0.75;entryY=0;entryDx=0;entryDy=0;strokeColor=#FF8000;strokeWidth=3;verticalAlign=middle;horizontal=0;" edge="1" parent="1" source="U-HPWR_DPuELKlg10GO_-3" target="U-HPWR_DPuELKlg10GO_-1">
          <mxGeometry relative="1" as="geometry" />
        </mxCell>
        <mxCell id="U-HPWR_DPuELKlg10GO_-3" value="&lt;font style=&quot;font-size: 40px&quot; face=&quot;b nazanin&quot;&gt;&lt;b&gt;اقلیم&lt;/b&gt;&lt;/font&gt;" style="rounded=1;whiteSpace=wrap;html=1;strokeWidth=3;perimeterSpacing=2;shadow=0;glass=0;fillColor=#eeeeee;strokeColor=#36393d;" vertex="1" parent="1">
          <mxGeometry x="716" y="22" width="170" height="100" as="geometry" />
        </mxCell>
        <mxCell id="U-HPWR_DPuELKlg10GO_-69" style="edgeStyle=orthogonalEdgeStyle;rounded=0;jumpStyle=none;orthogonalLoop=1;jettySize=auto;html=1;exitX=0.25;exitY=0;exitDx=0;exitDy=0;entryX=0;entryY=0.25;entryDx=0;entryDy=0;strokeColor=#FF8000;strokeWidth=3;verticalAlign=middle;" edge="1" parent="1" source="U-HPWR_DPuELKlg10GO_-4" target="U-HPWR_DPuELKlg10GO_-3">
          <mxGeometry relative="1" as="geometry">
            <Array as="points">
              <mxPoint x="136" y="46" />
            </Array>
          </mxGeometry>
        </mxCell>
        <mxCell id="U-HPWR_DPuELKlg10GO_-70" value="&lt;font style=&quot;font-size: 30px&quot; face=&quot;b nazanin&quot;&gt;گازهای گلخانه‌ای&lt;/font&gt;" style="edgeLabel;html=1;align=center;verticalAlign=middle;resizable=0;points=[];" vertex="1" connectable="0" parent="U-HPWR_DPuELKlg10GO_-69">
          <mxGeometry x="0.1429" y="4" relative="1" as="geometry">
            <mxPoint as="offset" />
          </mxGeometry>
        </mxCell>
        <mxCell id="U-HPWR_DPuELKlg10GO_-4" value="&lt;font face=&quot;b nazanin&quot;&gt;&lt;span style=&quot;font-size: 40px&quot;&gt;&lt;b&gt;زمین&lt;/b&gt;&lt;/span&gt;&lt;/font&gt;" style="rounded=1;whiteSpace=wrap;html=1;strokeWidth=3;perimeterSpacing=2;shadow=0;glass=0;fillColor=#cdeb8b;strokeColor=#36393d;" vertex="1" parent="1">
          <mxGeometry x="94" y="480" width="172" height="107" as="geometry" />
        </mxCell>
        <mxCell id="U-HPWR_DPuELKlg10GO_-5" value="&lt;font face=&quot;b nazanin&quot;&gt;&lt;span style=&quot;font-size: 40px&quot;&gt;&lt;b&gt;آب&lt;/b&gt;&lt;/span&gt;&lt;/font&gt;" style="rounded=1;whiteSpace=wrap;html=1;strokeWidth=3;perimeterSpacing=2;shadow=0;glass=0;fillColor=#dae8fc;strokeColor=#6c8ebf;" vertex="1" parent="1">
          <mxGeometry x="1352" y="480" width="172" height="108" as="geometry" />
        </mxCell>
        <mxCell id="U-HPWR_DPuELKlg10GO_-26" value="&lt;font style=&quot;font-size: 30px&quot; face=&quot;b nazanin&quot;&gt;انرژی برای پمپ‌ها&lt;/font&gt;" style="edgeStyle=elbowEdgeStyle;elbow=horizontal;endArrow=classic;html=1;strokeWidth=3;fillColor=#ffcc99;strokeColor=#FF8000;" edge="1" parent="1">
          <mxGeometry x="0.5813" y="10" width="50" height="50" relative="1" as="geometry">
            <mxPoint x="888" y="380" as="sourcePoint" />
            <mxPoint x="1350" y="520" as="targetPoint" />
            <Array as="points">
              <mxPoint x="1085" y="490" />
            </Array>
            <mxPoint as="offset" />
          </mxGeometry>
        </mxCell>
        <mxCell id="U-HPWR_DPuELKlg10GO_-31" value="&lt;font style=&quot;font-size: 30px&quot; face=&quot;b nazanin&quot;&gt;تصفیه آب&lt;/font&gt;" style="edgeStyle=elbowEdgeStyle;elbow=horizontal;endArrow=classic;html=1;strokeWidth=3;exitX=1;exitY=0.75;exitDx=0;exitDy=0;fillColor=#ffcc99;strokeColor=#FF8000;" edge="1" parent="1" source="U-HPWR_DPuELKlg10GO_-1">
          <mxGeometry x="0.5793" width="50" height="50" relative="1" as="geometry">
            <mxPoint x="897.9999999999995" y="470.9999999999998" as="sourcePoint" />
            <mxPoint x="1345" y="544" as="targetPoint" />
            <Array as="points">
              <mxPoint x="1068" y="502" />
            </Array>
            <mxPoint as="offset" />
          </mxGeometry>
        </mxCell>
        <mxCell id="U-HPWR_DPuELKlg10GO_-32" value="&lt;font face=&quot;b nazanin&quot;&gt;&lt;span style=&quot;font-size: 30px&quot;&gt;&amp;nbsp;برق‌آبی&amp;nbsp;&lt;/span&gt;&lt;/font&gt;" style="edgeStyle=elbowEdgeStyle;elbow=horizontal;endArrow=classic;html=1;strokeWidth=3;fillColor=#ffcc99;entryX=1;entryY=0.25;entryDx=0;entryDy=0;strokeColor=#7EA6E0;" edge="1" parent="1" target="U-HPWR_DPuELKlg10GO_-1">
          <mxGeometry x="0.5981" y="-11" width="50" height="50" relative="1" as="geometry">
            <mxPoint x="1350" y="485" as="sourcePoint" />
            <mxPoint x="1360" y="530" as="targetPoint" />
            <Array as="points">
              <mxPoint x="1100" y="505" />
            </Array>
            <mxPoint x="1" y="1" as="offset" />
          </mxGeometry>
        </mxCell>
        <mxCell id="U-HPWR_DPuELKlg10GO_-34" value="&lt;font style=&quot;font-size: 29px&quot; face=&quot;b nazanin&quot;&gt;چرخه آب&lt;/font&gt;" style="edgeStyle=elbowEdgeStyle;elbow=horizontal;endArrow=classic;html=1;strokeColor=#7EA6E0;strokeWidth=3;exitX=0.75;exitY=0;exitDx=0;exitDy=0;entryX=1;entryY=0.25;entryDx=0;entryDy=0;" edge="1" parent="1" source="U-HPWR_DPuELKlg10GO_-5" target="U-HPWR_DPuELKlg10GO_-3">
          <mxGeometry x="0.773" width="50" height="50" relative="1" as="geometry">
            <mxPoint x="1386" y="287" as="sourcePoint" />
            <mxPoint x="1436" y="237" as="targetPoint" />
            <Array as="points">
              <mxPoint x="1482" y="169" />
            </Array>
            <mxPoint x="-1" as="offset" />
          </mxGeometry>
        </mxCell>
        <mxCell id="U-HPWR_DPuELKlg10GO_-35" value="&lt;font face=&quot;b nazanin&quot;&gt;&lt;span style=&quot;font-size: 29px ; line-height: 120%&quot;&gt;تبخیر و تعرق&lt;br&gt;&lt;/span&gt;&lt;/font&gt;" style="edgeStyle=elbowEdgeStyle;elbow=horizontal;endArrow=classic;html=1;strokeWidth=3;exitX=1;exitY=0.5;exitDx=0;exitDy=0;entryX=0.604;entryY=0.021;entryDx=0;entryDy=0;entryPerimeter=0;align=center;jumpStyle=none;textDirection=rtl;labelPosition=center;verticalLabelPosition=middle;verticalAlign=middle;horizontal=0;strokeColor=#FF8000;" edge="1" parent="1" source="U-HPWR_DPuELKlg10GO_-3" target="U-HPWR_DPuELKlg10GO_-5">
          <mxGeometry x="0.8082" y="-6" width="50" height="50" relative="1" as="geometry">
            <mxPoint x="1353" y="310" as="sourcePoint" />
            <mxPoint x="1361" y="459" as="targetPoint" />
            <Array as="points">
              <mxPoint x="1456" y="229" />
              <mxPoint x="1453" y="275" />
            </Array>
            <mxPoint as="offset" />
          </mxGeometry>
        </mxCell>
        <mxCell id="U-HPWR_DPuELKlg10GO_-37" value="&lt;font face=&quot;b nazanin&quot;&gt;&lt;span style=&quot;font-size: 29px ; line-height: 120%&quot;&gt;&amp;nbsp;روان‌آب، سطح آبخوان و جریان‌ها&amp;nbsp;&lt;br&gt;&lt;/span&gt;&lt;/font&gt;" style="edgeStyle=elbowEdgeStyle;elbow=horizontal;endArrow=classic;html=1;strokeWidth=3;exitX=1;exitY=0.75;exitDx=0;exitDy=0;align=center;jumpStyle=none;textDirection=rtl;labelPosition=center;verticalLabelPosition=middle;verticalAlign=middle;horizontal=0;strokeColor=#FF8000;" edge="1" parent="1" source="U-HPWR_DPuELKlg10GO_-3">
          <mxGeometry x="0.6009" y="-7" width="50" height="50" relative="1" as="geometry">
            <mxPoint x="709.9999999999995" y="155" as="sourcePoint" />
            <mxPoint x="1415" y="478" as="targetPoint" />
            <Array as="points">
              <mxPoint x="1415" y="290" />
              <mxPoint x="1275" y="358" />
            </Array>
            <mxPoint y="-1" as="offset" />
          </mxGeometry>
        </mxCell>
        <mxCell id="U-HPWR_DPuELKlg10GO_-38" value="&lt;font style=&quot;font-size: 30px&quot; face=&quot;b nazanin&quot;&gt;سوخت زیستی&lt;/font&gt;" style="edgeStyle=elbowEdgeStyle;elbow=horizontal;endArrow=classic;html=1;strokeWidth=3;exitX=1;exitY=0.25;exitDx=0;exitDy=0;fillColor=#ffcc99;strokeColor=#FF8000;entryX=0;entryY=0.25;entryDx=0;entryDy=0;" edge="1" parent="1" source="U-HPWR_DPuELKlg10GO_-4" target="U-HPWR_DPuELKlg10GO_-1">
          <mxGeometry x="0.5773" y="5" width="50" height="50" relative="1" as="geometry">
            <mxPoint x="347.99999999999955" y="611" as="sourcePoint" />
            <mxPoint x="805" y="677.5" as="targetPoint" />
            <Array as="points">
              <mxPoint x="328" y="467" />
            </Array>
            <mxPoint x="-1" as="offset" />
          </mxGeometry>
        </mxCell>
        <mxCell id="U-HPWR_DPuELKlg10GO_-40" value="&lt;font style=&quot;font-size: 30px&quot; face=&quot;b nazanin&quot;&gt;تقاضای انرژی&lt;/font&gt;" style="edgeStyle=elbowEdgeStyle;elbow=horizontal;endArrow=classic;html=1;strokeWidth=3;fillColor=#ffcc99;strokeColor=#FF8000;entryX=1.019;entryY=0.877;entryDx=0;entryDy=0;exitX=0;exitY=0.75;exitDx=0;exitDy=0;entryPerimeter=0;textDirection=rtl;" edge="1" parent="1" source="U-HPWR_DPuELKlg10GO_-1" target="U-HPWR_DPuELKlg10GO_-4">
          <mxGeometry x="0.6484" width="50" height="50" relative="1" as="geometry">
            <mxPoint x="712" y="445" as="sourcePoint" />
            <mxPoint x="765" y="563.9999999999998" as="targetPoint" />
            <Array as="points">
              <mxPoint x="465" y="534" />
              <mxPoint x="516" y="517" />
            </Array>
            <mxPoint x="-1" as="offset" />
          </mxGeometry>
        </mxCell>
        <mxCell id="U-HPWR_DPuELKlg10GO_-42" value="&lt;font style=&quot;font-size: 26px&quot; face=&quot;b nazanin&quot;&gt;تخصیص زمین (فتوولتائیک، انرژی بادی)&lt;/font&gt;" style="edgeStyle=elbowEdgeStyle;elbow=horizontal;endArrow=classic;html=1;strokeWidth=3;exitX=1;exitY=0.5;exitDx=0;exitDy=0;fillColor=#ffcc99;strokeColor=#FF8000;align=left;textDirection=rtl;entryX=0;entryY=0.5;entryDx=0;entryDy=0;" edge="1" parent="1" source="U-HPWR_DPuELKlg10GO_-4" target="U-HPWR_DPuELKlg10GO_-1">
          <mxGeometry x="0.8926" width="50" height="50" relative="1" as="geometry">
            <mxPoint x="755" y="580" as="sourcePoint" />
            <mxPoint x="708" y="375" as="targetPoint" />
            <Array as="points">
              <mxPoint x="351" y="490" />
            </Array>
            <mxPoint as="offset" />
          </mxGeometry>
        </mxCell>
        <mxCell id="U-HPWR_DPuELKlg10GO_-44" value="&lt;font style=&quot;font-size: 28px&quot;&gt;کمپوست&lt;/font&gt;" style="curved=1;endArrow=classic;html=1;strokeColor=#FF8000;strokeWidth=3;exitX=0;exitY=0;exitDx=0;exitDy=0;entryX=0;entryY=1;entryDx=0;entryDy=0;textDirection=rtl;spacingLeft=2;spacingRight=2;verticalAlign=middle;horizontal=0;fontFamily=b nazanin;" edge="1" parent="1" source="U-HPWR_DPuELKlg10GO_-4" target="U-HPWR_DPuELKlg10GO_-4">
          <mxGeometry x="0.161" y="6" width="50" height="50" relative="1" as="geometry">
            <mxPoint x="233" y="460" as="sourcePoint" />
            <mxPoint x="83" y="584" as="targetPoint" />
            <Array as="points">
              <mxPoint x="6" y="527" />
            </Array>
            <mxPoint x="1" as="offset" />
          </mxGeometry>
        </mxCell>
        <mxCell id="U-HPWR_DPuELKlg10GO_-45" value="&lt;font face=&quot;b nazanin&quot; size=&quot;1&quot;&gt;&lt;b style=&quot;font-size: 26px&quot;&gt;اثرات و محرک‌های اجماعی-اقتصادی&lt;/b&gt;&lt;/font&gt;" style="rounded=1;whiteSpace=wrap;html=1;strokeWidth=3;perimeterSpacing=2;shadow=0;glass=0;fillColor=#ffe6cc;strokeColor=#d79b00;textDirection=rtl;spacingLeft=0;" vertex="1" parent="1">
          <mxGeometry x="714" y="626" width="172" height="104" as="geometry" />
        </mxCell>
        <mxCell id="U-HPWR_DPuELKlg10GO_-47" value="&lt;font style=&quot;font-size: 30px&quot; face=&quot;b nazanin&quot;&gt;تقاضای آب&lt;/font&gt;" style="edgeStyle=elbowEdgeStyle;elbow=horizontal;endArrow=classic;html=1;strokeWidth=3;fillColor=#ffcc99;strokeColor=#FF8000;textDirection=rtl;exitX=1;exitY=0.25;exitDx=0;exitDy=0;spacingLeft=2;spacingRight=2;verticalAlign=middle;" edge="1" parent="1" source="U-HPWR_DPuELKlg10GO_-45">
          <mxGeometry x="-0.6129" y="6" width="50" height="50" relative="1" as="geometry">
            <mxPoint x="1041" y="777" as="sourcePoint" />
            <mxPoint x="1371" y="592" as="targetPoint" />
            <Array as="points">
              <mxPoint x="1371" y="635" />
              <mxPoint x="1385" y="624" />
              <mxPoint x="770.66" y="789" />
            </Array>
            <mxPoint as="offset" />
          </mxGeometry>
        </mxCell>
        <mxCell id="U-HPWR_DPuELKlg10GO_-48" value="&lt;font style=&quot;font-size: 30px&quot; face=&quot;b nazanin&quot;&gt;زیرساخت‌های سیستم آب&lt;/font&gt;" style="edgeStyle=elbowEdgeStyle;elbow=horizontal;endArrow=classic;html=1;strokeWidth=3;fillColor=#ffcc99;strokeColor=#FF8000;textDirection=rtl;exitX=1;exitY=0.75;exitDx=0;exitDy=0;spacingLeft=2;spacingRight=2;entryX=0.25;entryY=1;entryDx=0;entryDy=0;" edge="1" parent="1" source="U-HPWR_DPuELKlg10GO_-45" target="U-HPWR_DPuELKlg10GO_-5">
          <mxGeometry x="-0.5419" y="5" width="50" height="50" relative="1" as="geometry">
            <mxPoint x="895.9999999999995" y="683.66" as="sourcePoint" />
            <mxPoint x="1393" y="595" as="targetPoint" />
            <Array as="points">
              <mxPoint x="1393" y="647" />
              <mxPoint x="778.66" y="821.66" />
            </Array>
            <mxPoint as="offset" />
          </mxGeometry>
        </mxCell>
        <mxCell id="U-HPWR_DPuELKlg10GO_-52" value="" style="edgeStyle=elbowEdgeStyle;elbow=vertical;endArrow=classic;html=1;strokeColor=#FF8000;strokeWidth=3;verticalAlign=middle;exitX=0.934;exitY=0.982;exitDx=0;exitDy=0;exitPerimeter=0;" edge="1" parent="1" source="U-HPWR_DPuELKlg10GO_-4">
          <mxGeometry width="50" height="50" relative="1" as="geometry">
            <mxPoint x="240" y="592" as="sourcePoint" />
            <mxPoint x="1430" y="592" as="targetPoint" />
            <Array as="points">
              <mxPoint x="795" y="760" />
            </Array>
          </mxGeometry>
        </mxCell>
        <mxCell id="U-HPWR_DPuELKlg10GO_-53" value="&lt;font style=&quot;font-size: 28px&quot; face=&quot;b nazanin&quot;&gt;روان‌آب سطحی&amp;nbsp;&lt;/font&gt;" style="edgeLabel;html=1;align=center;verticalAlign=middle;resizable=0;points=[];" vertex="1" connectable="0" parent="U-HPWR_DPuELKlg10GO_-52">
          <mxGeometry x="0.6359" y="-5" relative="1" as="geometry">
            <mxPoint x="-20" y="-9" as="offset" />
          </mxGeometry>
        </mxCell>
        <mxCell id="U-HPWR_DPuELKlg10GO_-54" value="" style="edgeStyle=elbowEdgeStyle;elbow=vertical;endArrow=classic;html=1;strokeColor=#FF8000;strokeWidth=3;verticalAlign=middle;exitX=0.75;exitY=1;exitDx=0;exitDy=0;" edge="1" parent="1" source="U-HPWR_DPuELKlg10GO_-4">
          <mxGeometry width="50" height="50" relative="1" as="geometry">
            <mxPoint x="221" y="660" as="sourcePoint" />
            <mxPoint x="1456" y="590" as="targetPoint" />
            <Array as="points">
              <mxPoint x="807" y="794" />
            </Array>
          </mxGeometry>
        </mxCell>
        <mxCell id="U-HPWR_DPuELKlg10GO_-55" value="&lt;font style=&quot;font-size: 28px&quot; face=&quot;b nazanin&quot;&gt;رطوبت خاک و شارژ مجدد آب‌های زیرزمینی&lt;/font&gt;" style="edgeLabel;html=1;align=center;verticalAlign=middle;resizable=0;points=[];" vertex="1" connectable="0" parent="U-HPWR_DPuELKlg10GO_-54">
          <mxGeometry x="0.6359" y="-5" relative="1" as="geometry">
            <mxPoint x="-182" y="-6" as="offset" />
          </mxGeometry>
        </mxCell>
        <mxCell id="U-HPWR_DPuELKlg10GO_-56" value="" style="edgeStyle=elbowEdgeStyle;elbow=vertical;endArrow=classic;html=1;strokeColor=#FF8000;strokeWidth=3;verticalAlign=middle;entryX=0.5;entryY=1;entryDx=0;entryDy=0;exitX=0.75;exitY=1;exitDx=0;exitDy=0;" edge="1" parent="1" source="U-HPWR_DPuELKlg10GO_-5" target="U-HPWR_DPuELKlg10GO_-4">
          <mxGeometry width="50" height="50" relative="1" as="geometry">
            <mxPoint x="1480" y="645" as="sourcePoint" />
            <mxPoint x="180" y="612" as="targetPoint" />
            <Array as="points">
              <mxPoint x="806" y="829" />
            </Array>
          </mxGeometry>
        </mxCell>
        <mxCell id="U-HPWR_DPuELKlg10GO_-57" value="&lt;font style=&quot;font-size: 28px&quot; face=&quot;b nazanin&quot;&gt;آبیاری&lt;/font&gt;" style="edgeLabel;html=1;align=center;verticalAlign=middle;resizable=0;points=[];" vertex="1" connectable="0" parent="U-HPWR_DPuELKlg10GO_-56">
          <mxGeometry x="0.6359" y="-5" relative="1" as="geometry">
            <mxPoint x="257" y="2" as="offset" />
          </mxGeometry>
        </mxCell>
        <mxCell id="U-HPWR_DPuELKlg10GO_-62" value="" style="edgeStyle=elbowEdgeStyle;elbow=vertical;endArrow=classic;html=1;strokeColor=#FF8000;strokeWidth=3;verticalAlign=middle;entryX=0.25;entryY=1;entryDx=0;entryDy=0;" edge="1" parent="1" target="U-HPWR_DPuELKlg10GO_-4">
          <mxGeometry width="50" height="50" relative="1" as="geometry">
            <mxPoint x="1506" y="589" as="sourcePoint" />
            <mxPoint x="101" y="634" as="targetPoint" />
            <Array as="points">
              <mxPoint x="816" y="874" />
            </Array>
          </mxGeometry>
        </mxCell>
        <mxCell id="U-HPWR_DPuELKlg10GO_-63" value="&lt;font style=&quot;font-size: 28px&quot; face=&quot;b nazanin&quot;&gt;تولید محصولات دامی&lt;/font&gt;" style="edgeLabel;html=1;align=center;verticalAlign=middle;resizable=0;points=[];" vertex="1" connectable="0" parent="U-HPWR_DPuELKlg10GO_-62">
          <mxGeometry x="0.6359" y="-5" relative="1" as="geometry">
            <mxPoint x="320" y="2" as="offset" />
          </mxGeometry>
        </mxCell>
      </root>
    </mxGraphModel>
  </diagram>
</mxfile>
